<svg xmlns="http://www.w3.org/2000/svg" width="1600" height="900" viewBox="0 0 1600 900"><style>
@font-face{font-family:'Libre Baskerville';src:url(fonts/LibreBaskerville-Variable.ttf);font-weight:400 700}
@font-face{font-family:'Libre Baskerville';font-style:italic;src:url(fonts/LibreBaskerville-Italic-Variable.ttf);font-weight:400 700}
@font-face{font-family:'IBM Plex Mono';src:url(fonts/IBMPlexMono-Regular.ttf);font-weight:400}
@font-face{font-family:'IBM Plex Mono';src:url(fonts/IBMPlexMono-Bold.ttf);font-weight:700}
@font-face{font-family:Kalam;src:url(fonts/Kalam-Regular.ttf);font-weight:400}
@font-face{font-family:Kalam;src:url(fonts/Kalam-Bold.ttf);font-weight:700}</style><defs>
<filter id="grain" x="0" y="0" width="100%" height="100%">
  <feTurbulence type="fractalNoise" baseFrequency="0.85" numOctaves="2" stitchTiles="stitch"/>
  <feColorMatrix type="saturate" values="0"/>
  <feComponentTransfer><feFuncA type="linear" slope="0.07"/></feComponentTransfer>
</filter>
<filter id="stamp" x="-10%" y="-20%" width="120%" height="140%">
  <feTurbulence type="fractalNoise" baseFrequency="0.55" numOctaves="2" seed="4" result="n"/>
  <feColorMatrix in="n" type="matrix" values="0 0 0 0 1 0 0 0 0 1 0 0 0 0 1 -9 0 0 0 6.2" result="m"/>
  <feComposite in="SourceGraphic" in2="m" operator="in"/>
</filter>
<filter id="lift" x="-10%" y="-10%" width="125%" height="130%">
  <feDropShadow dx="5" dy="9" stdDeviation="11" flood-color="#3B3023" flood-opacity="0.22"/>
</filter></defs><rect x="-50" y="-50" width="1700" height="1000" fill="#F4EFE4"/><text x="80" y="96" font-family="'Libre Baskerville', Georgia, serif" font-size="42" fill="#1D1D1B" font-weight="700" text-anchor="start" font-style="normal" letter-spacing="0">Every line, four questions</text><text x="80" y="138" font-family="'Libre Baskerville', Georgia, serif" font-size="20" fill="#6F6A60" font-weight="400" text-anchor="start" font-style="italic" letter-spacing="0">Answer in order and stop at the first yes.</text><path d="M115.95029727912274 190.36749464345775 C121.12269792358427 190.8355005759422, 127.0689407443333 196.0215448478781, 130.3555199254039 200.51133745425773 C133.64209910647452 205.00113006063737, 135.24732905055862 211.95330675216965, 135.6697723655464 217.3062502817355 C136.0922156805342 222.65919381130132, 135.84748580066892 228.001166815027, 132.89017981533073 232.6289986316528 C129.93287382999253 237.25683044827858, 123.45927209721987 243.41906293145104, 117.92593645351717 245.07324118149018 C112.39260080981447 246.7274194315293, 104.4268216097876 245.14616479155688, 99.69016595311453 242.55406813188753 C94.95351029644146 239.96197147221818, 91.37380603953375 234.7908435999799, 89.50600251347882 229.520661223474 C87.63819898742389 224.25047884696812, 87.23147782992304 216.72112838286398, 88.48334479678499 210.93297387285216 C89.73521176364694 205.14481936284034, 91.9348054238562 197.74239152236598, 97.01720431465051 194.79173416340316 C102.09960320544482 191.84107680444035, 114.68202172714896 193.12377268492958, 118.9777381415508 193.2290297190752 C123.27345455595264 193.33428675322085, 123.02965559316921 194.98389084642605, 122.79150280106154 195.42327636827707 M113.73441102595562 190.932945006302 C119.17726164787348 191.06041582491065, 126.76250420171314 195.61419677335454, 130.70180142708665 199.6262348932296 C134.64109865246016 203.63827301310465, 136.7725406078285 209.33645347449766, 137.37019437819666 215.0051737255523 C137.96784814856483 220.67389397660696, 137.31133641577793 228.70467065532134, 134.28772404929563 233.6385563995575 C131.26411168281334 238.57244214379367, 124.50346744100993 243.37959724290624, 119.22852017930293 244.60848819096933 C113.95357291759593 245.8373791390324, 107.59404732195497 243.81824861379323, 102.63804047905363 241.01190208793602 C97.68203363615228 238.2055555620788, 91.96071770293142 232.588354042327, 89.49247912189486 227.770409035826 C87.0242405408583 222.95246402932497, 86.16152277841255 217.0894086219369, 87.82860899283423 212.10423204893 C89.49569520725592 207.11905547592306, 94.90796051092252 200.9730792303029, 99.494996408425 197.85934959778447 C104.08203230592747 194.74561996526606, 112.5456848226248 194.04987963066804, 115.35082437784904 193.42185425381956 C118.15596393307327 192.79382887697108, 116.42438468444756 193.7501530334411, 116.32583373977039 194.09119733669348" stroke="#1D1D1B" stroke-width="2.4" fill="none" stroke-linecap="round" stroke-linejoin="round"/><text x="112" y="229" font-family="Kalam, 'Bradley Hand', cursive" font-size="30" fill="#1D1D1B" font-weight="700" text-anchor="middle" font-style="normal" letter-spacing="0">1</text><text x="164" y="212" font-family="'Libre Baskerville', Georgia, serif" font-size="25" fill="#1D1D1B" font-weight="700" text-anchor="start" font-style="normal" letter-spacing="0">Could the agent work it out</text><text x="164" y="246" font-family="'Libre Baskerville', Georgia, serif" font-size="25" fill="#1D1D1B" font-weight="700" text-anchor="start" font-style="normal" letter-spacing="0">by reading the code?</text><text x="164" y="282" font-family="'Libre Baskerville', Georgia, serif" font-size="17" fill="#6F6A60" font-weight="400" text-anchor="start" font-style="italic" letter-spacing="0">directory layout, dependency list, framework, architecture overview</text><text x="814" y="198" font-family="Kalam, 'Bradley Hand', cursive" font-size="24" fill="#6F6A60" font-weight="700" text-anchor="middle" font-style="normal" letter-spacing="0">yes</text><path d="M111.15202202647924 247.25524017959833 C113.634151077047 263.6303988941014, 111.36604199387133 280.9662280797958, 113.68680610507727 333.81749818474054 M111.70141719654202 247.10949428007007 C112.09765445299446 267.9971237063408, 111.26507805891335 285.8579701431096, 112.89155422523618 334.2140063755214" stroke="#6F6A60" stroke-width="2.2" fill="none" stroke-linecap="round" stroke-linejoin="round"/><path d="M111.13868520428835 333.229475629546 C110.12168602219198 332.25363502045604, 109.16424741991051 328.6436880322874, 103.52113005520461 321.22545562809853 M112.02282384626403 334.16185733117703 C109.94669067643183 331.3178082782029, 108.34627277256116 328.4471604359643, 103.70197087394105 321.9856451100574" stroke="#6F6A60" stroke-width="2.2" fill="none" stroke-linecap="round" stroke-linejoin="round"/><path d="M112.3749263884786 334.5118482377584 C114.04200152695815 331.8717497470829, 114.4554729395211 328.7405647651575, 120.04310081419732 322.2605382267538 M112.1748343654688 333.8436740403589 C113.86894321194869 330.9850143994552, 116.19211399574469 327.61166579648034, 119.88352871712 321.87869690488856" stroke="#6F6A60" stroke-width="2.2" fill="none" stroke-linecap="round" stroke-linejoin="round"/><text x="126" y="306" font-family="Kalam, 'Bradley Hand', cursive" font-size="22" fill="#6F6A60" font-weight="700" text-anchor="start" font-style="normal" letter-spacing="0">no</text><path d="M744.0132296136003 223.81467810002155 C755.5858629484158 222.24304964579332, 789.4463468586783 215.15121526435203, 812.0985661405306 215.1541695540864 C834.7507854223828 215.15712384382076, 868.6860255372505 222.21204195528418, 879.9265453047137 223.83240383842775 M742.3862060968146 222.54609933624417 C753.9080043629234 221.0777360089476, 788.3148317750995 215.98448249635845, 811.088859842132 216.4300395553127 C833.8628879091646 216.87559661426695, 867.6157483856107 224.21182181312392, 879.0303744990096 225.21944168996959" stroke="#6F6A60" stroke-width="2.4" fill="none" stroke-linecap="round" stroke-linejoin="round"/><path d="M879.148645490408 223.46646748185157 C877.543056133414 224.5838822556484, 875.2666328761022 226.14151636077042, 865.4386853876347 231.00986233643312 M879.4640529662371 224.10073322951794 C875.9181038802741 225.91065773191056, 871.5591632871019 228.07005676641714, 866.673263147735 229.71292014113683" stroke="#6F6A60" stroke-width="2.4" fill="none" stroke-linecap="round" stroke-linejoin="round"/><path d="M880.863003559038 222.8447983253747 C876.4263382263196 221.12990600527291, 874.3676805355957 220.27415023994396, 867.969483295917 214.68614866927885 M879.6748536283151 223.6594923948869 C875.8849601068501 221.0124572764891, 872.8177266905323 217.9010814253939, 868.7319932780186 215.40549469654135" stroke="#6F6A60" stroke-width="2.4" fill="none" stroke-linecap="round" stroke-linejoin="round"/><g transform="rotate(-4 1150 222)"><g filter="url(#stamp)"><path d="M1028.693699589408 186.03186232253006 C1076.9112544306874 187.29461825226474, 1125.928714068188 186.04911749417502, 1272.5192813790652 183.18328321501482 M1028.2106507681303 185.69259801644463 C1112.7692886124228 183.75692697093976, 1199.1395649567012 183.04836396312973, 1271.0131114441706 185.72619598923134 M1271.6116976186634 183.2557504966855 C1270.967492593095 201.06139517687262, 1271.8146241791696 219.15418127551675, 1271.629899017513 257.4554743602872 M1270.8914866365494 184.35143286809324 C1273.3379974084348 200.98987276665866, 1273.2534937339276 214.93844068646433, 1272.0366816677154 258.8607822857797 M1271.9276092418093 259.4947019608745 C1200.758018120433 257.47156706047616, 1132.852103303192 260.88045408571577, 1028.9856462067635 259.9052093005973 M1271.2413456671534 258.2190356643057 C1216.7166116258127 260.5609219269127, 1162.5057749034384 260.30251737781106, 1028.3939163087696 259.4284594625925 M1027.0925546094777 257.7035540893674 C1029.6063534317764 236.24838541187347, 1027.1349089680464 212.79373705908657, 1026.633152858913 183.92165258675814 M1029.4469603933394 260.0251468859613 C1028.1554080193193 241.3187285337597, 1029.951164049402 224.12434249967336, 1027.3688720382752 185.02215957269073" stroke="#C8352B" stroke-width="3.4" fill="none" stroke-linecap="round" stroke-linejoin="round"/><path d="M1034.534598457949 192.0024858271929 C1082.8174478331498 190.6338270942099, 1128.7933351610911 190.48375153174197, 1262.6913540309815 192.57600556420516 M1035.5642248656873 191.9608583032827 C1121.194644340391 191.9194761320198, 1205.1723766408645 192.65211435271883, 1264.4252453352824 192.49414843490615 M1264.0557427115739 190.55643038079143 C1263.4184177903087 204.89519567526878, 1265.0953924445064 222.10021386891603, 1263.8985563226045 251.81224843785168 M1265.4486998882146 191.59230400063097 C1264.7984889405968 209.34315049275756, 1263.5422230261568 225.5420533966273, 1264.3249338831754 251.08347475267948 M1263.9692185826382 250.24747342881835 C1197.2115265470607 252.2322237863275, 1126.9735452083214 251.09568399553646, 1035.835081805634 250.47536807398626 M1264.2890308562294 252.07175786990516 C1219.3111309328674 250.72427555698215, 1172.64169895907 250.18126994400973, 1035.3313780699511 251.46171757895178 M1035.6278296656908 252.76579255387188 C1036.0024651443214 241.06286603026092, 1036.2521006261559 226.1068076401949, 1036.7433132596316 191.87435566708444 M1035.5085086908193 253.02301453091204 C1035.6088213573398 228.11170179694892, 1035.6118427048625 203.99915348254143, 1036.0977607216687 192.00779566504062" stroke="#C8352B" stroke-width="1.6" fill="none" stroke-linecap="round" stroke-linejoin="round"/><text x="1150" y="234.24" font-family="'Libre Baskerville', Georgia, serif" font-size="34" fill="#C8352B" font-weight="700" text-anchor="middle" font-style="normal" letter-spacing="4">CUT IT</text></g></g><path d="M102.37457524463542 336.47721107260907 C107.06571439066902 334.2354688407661, 114.40525970606069 333.36200349355676, 119.82622502438944 335.0570197158691 C125.2471903427182 336.75203593818145, 132.24493595338598 341.6819464856319, 134.90036715460792 346.6473084064832 C137.55579835582986 351.6126703273345, 137.02466251771276 359.40425424762793, 135.75881223172104 364.84919124097684 C134.49296194572932 370.29412823432574, 131.36329947291733 375.79060143069427, 127.30526543865756 379.3169303665765 C123.24723140439778 382.84325930245876, 116.72837398518398 385.8591847965615, 111.41060802616234 386.00716485627026 C106.0928420671407 386.155144915979, 99.35825654659743 383.81305341300947, 95.39866968452768 380.20481072482886 C91.43908282245792 376.59656803664825, 88.48762770640867 369.7778729107386, 87.65308685374383 364.35770872718643 C86.81854600107899 358.93754454363426, 87.72485111639142 352.5899937746078, 90.39142456853858 347.6838256235159 C93.05799802068574 342.7776574724239, 101.3104877664684 336.7580894409325, 103.65252756662677 334.92069982063487 C105.99456736678515 333.0833102003372, 104.16195217745093 336.12124589284474, 104.44366336948883 336.65948790173 M100.63611777635876 335.2216627429263 C105.00983010406722 332.59649845413895, 113.8247624752998 333.0538848898067, 118.95729950415179 335.0591332904459 C124.08983653300378 337.06438169108515, 128.67049089755258 342.8923218578609, 131.43133994947064 347.2531531467617 C134.1921890013887 351.6139844356625, 136.1437610870076 355.8156454138317, 135.5223938156601 361.22412102385044 C134.90102654431263 366.6325966338692, 131.27791850126746 375.3160205434219, 127.70313632138573 379.7040068068742 C124.12835414150399 384.09199307032645, 119.12058073846981 387.6538470843911, 114.07370073636966 387.5520386045639 C109.0268207342695 387.4502301247367, 101.81787869058087 382.557747420041, 97.4218563087848 379.093155927911 C93.02583392698872 375.6285644357811, 88.71611277510465 371.7232815215528, 87.69756644559318 366.7644896517843 C86.67902011608172 361.8056977820158, 88.93642261756831 354.32894613457296, 91.31057833171602 349.3404047092999 C93.68473404586372 344.3518632840268, 100.14099717455116 338.6172402073214, 101.94250073047941 336.833241100146 C103.74400428640766 335.04924199297056, 102.29240301577877 338.0765198522026, 102.11959966728554 338.63641006624744" stroke="#1D1D1B" stroke-width="2.4" fill="none" stroke-linecap="round" stroke-linejoin="round"/><text x="112" y="371" font-family="Kalam, 'Bradley Hand', cursive" font-size="30" fill="#1D1D1B" font-weight="700" text-anchor="middle" font-style="normal" letter-spacing="0">2</text><text x="164" y="354" font-family="'Libre Baskerville', Georgia, serif" font-size="25" fill="#1D1D1B" font-weight="700" text-anchor="start" font-style="normal" letter-spacing="0">Would breaking it cause</text><text x="164" y="388" font-family="'Libre Baskerville', Georgia, serif" font-size="25" fill="#1D1D1B" font-weight="700" text-anchor="start" font-style="normal" letter-spacing="0">real damage?</text><text x="164" y="424" font-family="'Libre Baskerville', Georgia, serif" font-size="17" fill="#6F6A60" font-weight="400" text-anchor="start" font-style="italic" letter-spacing="0">a hook, a permission rule, or a CI check. Not steering.</text><text x="814" y="340" font-family="Kalam, 'Bradley Hand', cursive" font-size="24" fill="#6F6A60" font-weight="700" text-anchor="middle" font-style="normal" letter-spacing="0">yes</text><path d="M112.86739305593073 391.9302028324455 C112.35266896774992 406.10241981577127, 111.92123117735609 425.4017024576664, 112.544454196468 477.3485177066177 M112.86342712771147 390.4908817606047 C111.86579774348066 407.64678309261797, 111.8556794079952 427.7069402916357, 112.66818564664572 475.98934923578054" stroke="#6F6A60" stroke-width="2.2" fill="none" stroke-linecap="round" stroke-linejoin="round"/><path d="M111.8808681886643 476.386841430121 C109.775372680767 472.7647544413675, 109.61227589888286 471.7330008971655, 104.75753766169353 463.8878759548823 M111.66025390688425 475.8942046321479 C110.49851116431576 473.5941840108248, 108.45127450545428 470.3298939341829, 103.60532685032881 463.8884435696492" stroke="#6F6A60" stroke-width="2.2" fill="none" stroke-linecap="round" stroke-linejoin="round"/><path d="M111.38644476063182 475.9385494261107 C113.69633555008994 474.13043862292164, 114.90479614760699 471.84678247274013, 119.54884380846353 463.19229394131486 M111.81226442608902 475.57602134132975 C114.151436126116 473.2723877175227, 115.90246058120452 469.50539688014464, 119.78688469350774 463.7814953644804" stroke="#6F6A60" stroke-width="2.2" fill="none" stroke-linecap="round" stroke-linejoin="round"/><text x="126" y="448" font-family="Kalam, 'Bradley Hand', cursive" font-size="22" fill="#6F6A60" font-weight="700" text-anchor="start" font-style="normal" letter-spacing="0">no</text><path d="M745.1189139999598 366.9656920607835 C756.5432734952817 365.8482240780145, 788.6891289902577 359.33082206662, 811.209466080591 359.2491762121469 C833.7298031709244 359.1675303576738, 868.5806444803128 365.33237584892413, 880.2409365419596 366.4758169339448 M744.0746405327062 366.3037542615716 C756.0531173537523 364.84581630995416, 791.2571228497983 357.8973492771988, 813.8297603243719 357.5306177552854 C836.4023977989456 357.16388623337195, 868.8210263289919 362.45782676710036, 879.5104653801482 364.10336513009116" stroke="#6F6A60" stroke-width="2.4" fill="none" stroke-linecap="round" stroke-linejoin="round"/><path d="M880.1778681080789 367.07144507355986 C876.992632937823 366.9553514784928, 873.417659413809 367.2892198604965, 867.153274242469 371.5284740495594 M880.1612589249387 365.7295657178387 C875.3460957387459 368.1530677856593, 871.5876971005827 369.58784448720826, 866.5392420005808 371.5781258572923" stroke="#6F6A60" stroke-width="2.4" fill="none" stroke-linecap="round" stroke-linejoin="round"/><path d="M879.492226176709 366.449775917083 C878.3336666458521 363.2990546177236, 874.9765317983276 361.2189116951105, 867.2840721507515 357.6047603824052 M880.3720595870167 366.48832488320767 C876.4814744379579 363.17258618016064, 872.8006291486087 360.65689553444855, 868.5979721308644 357.27070041269684" stroke="#6F6A60" stroke-width="2.4" fill="none" stroke-linecap="round" stroke-linejoin="round"/><g transform="rotate(3 1150 364)"><g filter="url(#stamp)"><path d="M903.4104152644651 330.35746549332754 C1002.2948697878409 330.34018629165587, 1101.7937218390866 328.7015483815418, 1395.491981091392 330.3520024276005 M904.883309863475 330.53904226634904 C1072.8875991767611 332.26777625242926, 1241.316161852996 332.3472763685649, 1395.1949870353276 330.7518678694641 M1395.408103454858 331.46186945363877 C1395.5869845068269 356.7557499191724, 1394.3027037060074 381.548775129579, 1393.8478147633373 398.5664410583675 M1394.5064059015363 329.61927306093276 C1396.1494941889978 345.1840800751932, 1395.1191303550936 361.10037062522025, 1394.4309516068547 397.5650144878775 M1395.5029565978125 397.7870435366002 C1285.3729454294576 396.77625668731247, 1172.785168594187 398.0395918895938, 903.9609617678404 397.1414673929343 M1395.6737241147814 397.9579129997155 C1293.4100236650092 398.5198323703518, 1191.4299700312345 398.1699457156072, 904.1235887762721 397.4043935747521 M902.5100301153958 395.5637002699077 C902.8420786348172 378.5244020962156, 905.6603536811657 357.8027545267716, 906.624596465379 328.395980309695 M904.2008950706571 398.505955690518 C903.6991159079037 377.80696998415516, 903.7602597949467 357.0006055088714, 904.5288701888173 330.39288440383973" stroke="#1D1D1B" stroke-width="3.4" fill="none" stroke-linecap="round" stroke-linejoin="round"/><path d="M911.8562798699808 336.80493926659415 C1007.343562946544 338.92349777592665, 1101.86995725484 337.77421062105805, 1389.119896922465 336.4988056238087 M911.0440981244053 337.1547682876389 C1084.9795554157438 335.62638505116365, 1259.656840070144 335.4109828177158, 1388.3927151012538 337.63614254707267 M1387.8521485477686 338.7625493377447 C1387.850817660108 347.6617436785251, 1387.3963799274115 358.6391942448914, 1390.916472068429 388.12321513593196 M1389.0636191532014 336.8601441934705 C1387.6955748966188 352.84072241447865, 1387.8934488227815 367.9107125617564, 1389.1192038223146 389.78770695477726 M1387.9997187548938 389.6399824079558 C1273.600776499697 390.656532362994, 1157.2933078851863 389.60323906138177, 910.8503051489919 390.96027540343937 M1388.707604281469 390.38262676549823 C1205.8566132313365 388.9389986015371, 1022.2690271286637 389.4778068660509, 911.0759479979288 390.94652719156704 M911.0453051716089 390.6259387344122 C913.9364628519862 371.68452196530995, 909.8758178438991 347.80710360929373, 911.9347568660975 336.34868339002134 M910.2624433681368 391.5038233354688 C911.2104217839985 377.3808568898588, 911.8788309884816 362.4372437767684, 910.857758872211 337.3785204961896" stroke="#1D1D1B" stroke-width="1.6" fill="none" stroke-linecap="round" stroke-linejoin="round"/><text x="1150" y="373.72" font-family="'Libre Baskerville', Georgia, serif" font-size="27" fill="#1D1D1B" font-weight="700" text-anchor="middle" font-style="normal" letter-spacing="4">ENFORCE ELSEWHERE</text></g></g><path d="M125.5843052961313 477.40521507819284 C130.04282027872267 480.2925911096463, 132.95426994091153 487.8240801160929, 134.74623754503335 493.9548614221208 C136.53820514915517 500.08564272814874, 138.18607212030525 508.6897923423802, 136.33611092086224 514.1899029143603 C134.48614972141922 519.6900134863405, 128.4962534459362 524.1476492506769, 123.6464703483753 526.9555248540019 C118.7966872508144 529.7634004573268, 112.59407820873133 532.3197640472229, 107.23741233549684 531.0371565343104 C101.88074646226235 529.7545490213979, 94.73156731999626 524.3353172579033, 91.50647510896836 519.2598797765266 C88.28138289794046 514.18444229515, 87.53448765793324 506.86888708309925, 87.8868590693294 500.58453164605027 C88.23923048072557 494.3001762090013, 90.33766828298766 486.222042011137, 93.62070357734537 481.55374715423284 C96.90373887170307 476.8854522973287, 101.41187045979952 472.03197749097876, 107.5850708354756 472.5747625046255 C113.7582712111517 473.1175475182722, 126.32071295413934 481.8100392746218, 130.6599058314019 484.81045723611317 C134.99909870866443 487.81087519760456, 133.99086273686237 490.4968065662197, 133.62022809905088 490.5772702735739 M121.6826617380557 474.44991983216215 C126.4398401677691 476.3859330336621, 131.79073568298068 483.97067739512244, 134.3692499126542 489.91577254066357 C136.9477641423277 495.8608676862047, 138.67663423184902 503.951070058278, 137.15374711609672 510.120490705409 C135.63086000034443 516.28991135254, 129.95352103575098 523.2936078332906, 125.23192721814037 526.9322964234498 C120.51033340052976 530.570985013609, 114.2142343941325 532.7330660912951, 108.82418421043302 531.9526222463641 C103.43413402673353 531.172178401433, 96.54040137630477 526.6161116129114, 92.89162611594345 522.2496333538637 C89.24285085558213 517.8831550948161, 87.08619703093066 511.98737332137995, 86.93153264826515 505.753752692078 C86.77686826559963 499.5201320627761, 89.10512300509498 490.1994277849476, 91.96363981995032 484.8479095780522 C94.82215663480565 479.49639137115685, 98.96340445832163 475.255267163867, 104.08263353739717 473.64464345070564 C109.20186261647271 472.03401973754427, 119.79690220699163 474.4212126473081, 122.67901429440353 475.1841672990839 C125.56112638181543 475.94712195085975, 121.49144243436614 477.3592942257335, 121.3753060618686 478.2223713613607" stroke="#1D1D1B" stroke-width="2.4" fill="none" stroke-linecap="round" stroke-linejoin="round"/><text x="112" y="513" font-family="Kalam, 'Bradley Hand', cursive" font-size="30" fill="#1D1D1B" font-weight="700" text-anchor="middle" font-style="normal" letter-spacing="0">3</text><text x="164" y="496" font-family="'Libre Baskerville', Georgia, serif" font-size="25" fill="#1D1D1B" font-weight="700" text-anchor="start" font-style="normal" letter-spacing="0">Does it only apply to</text><text x="164" y="530" font-family="'Libre Baskerville', Georgia, serif" font-size="25" fill="#1D1D1B" font-weight="700" text-anchor="start" font-style="normal" letter-spacing="0">part of the codebase?</text><text x="164" y="566" font-family="'IBM Plex Mono', Menlo, monospace" font-size="17" fill="#6F6A60" font-weight="400" text-anchor="start" font-style="normal" letter-spacing="0">inclusion: fileMatch  ·  paths  ·  globs  ·  applyTo</text><text x="814" y="482" font-family="Kalam, 'Bradley Hand', cursive" font-size="24" fill="#6F6A60" font-weight="700" text-anchor="middle" font-style="normal" letter-spacing="0">yes</text><path d="M110.58276408538222 532.6051654852927 C112.79118685845286 548.5744407374411, 114.19642036084086 565.837176835537, 111.40210228785872 616.8795372284949 M112.02543705888093 531.8722692411393 C111.91394103396684 549.2964424788952, 110.72628075707703 567.5559104401618, 112.44481706805527 617.7646920960397" stroke="#6F6A60" stroke-width="2.2" fill="none" stroke-linecap="round" stroke-linejoin="round"/><path d="M112.62305117304022 617.8135426184733 C111.15972395156471 614.9105384745017, 108.32963976563245 612.9956491498209, 104.26328065595975 606.5502962816661 M112.16301627361584 617.6265519331187 C110.04099934608833 614.9092274373353, 108.41227623834739 612.1166274324016, 104.37401513282792 605.7912420292411" stroke="#6F6A60" stroke-width="2.2" fill="none" stroke-linecap="round" stroke-linejoin="round"/><path d="M112.12862774500776 617.365250614463 C113.35066957322174 616.2931274987602, 115.3541193556929 613.1263355681001, 120.78525141495246 605.8547142680986 M112.3150267928206 618.1737009484119 C113.71259673417191 614.5984287294789, 115.75680716666436 612.1684602699203, 119.6902406698955 605.6842938240723" stroke="#6F6A60" stroke-width="2.2" fill="none" stroke-linecap="round" stroke-linejoin="round"/><text x="126" y="590" font-family="Kalam, 'Bradley Hand', cursive" font-size="22" fill="#6F6A60" font-weight="700" text-anchor="start" font-style="normal" letter-spacing="0">no</text><path d="M743.5405983863194 507.43270602154547 C755.2640173754811 506.32206517690236, 790.1685777885039 500.3790955355546, 813.0043660206516 500.66018287020734 C835.8401542527993 500.9412702048601, 869.3699300900419 508.00537640923073, 880.5553277792055 509.1192300294619 M745.7630749685978 505.9628091868991 C757.5151303445812 504.51529661096083, 790.1008139244968 498.4440160580391, 812.4720608066117 498.631195955258 C834.8433076887266 498.81837585247695, 868.660104272373 505.4855317210768, 879.9905562612867 507.0858885702128" stroke="#6F6A60" stroke-width="2.4" fill="none" stroke-linecap="round" stroke-linejoin="round"/><path d="M878.8070907257497 508.27642266526817 C876.4422097422324 509.3268207013371, 873.9686859515158 510.8369233602226, 866.4678630973035 514.4470857626857 M879.6584648836404 508.5583982061595 C876.0729317287339 510.1767775018115, 871.7150750455794 512.086931870403, 866.4052208534265 514.6433315734478" stroke="#6F6A60" stroke-width="2.4" fill="none" stroke-linecap="round" stroke-linejoin="round"/><path d="M880.5214487943798 507.6547535087913 C877.8409950653845 505.65799229253577, 875.5853830610596 504.7534622126385, 868.998661005586 498.12337209553147 M879.8692655457183 508.11715737152844 C876.0248904770473 505.52250414619374, 872.9304333146671 502.4024987058648, 868.4639509837101 499.1359061288523" stroke="#6F6A60" stroke-width="2.4" fill="none" stroke-linecap="round" stroke-linejoin="round"/><g transform="rotate(-2.5 1150 506)"><g filter="url(#stamp)"><path d="M996.9622614993602 467.59998365010966 C1056.741267940914 469.4876481077404, 1121.4415293602588 471.80406764059046, 1301.6189616270854 470.0716491223551 M997.3159294507819 468.5307531239579 C1100.4550063774802 468.86587337768276, 1201.7542125621167 468.0255631655758, 1303.6362356921754 469.2446295344768 M1302.404509291053 467.8679884105921 C1303.403673894018 496.14804289862514, 1304.7879807063046 523.1392454579473, 1304.0657305091622 541.8774077564478 M1303.7213251665237 467.88711325377227 C1302.2695578151645 487.9144789837301, 1302.693333821863 504.13468376398083, 1302.4252215459944 543.2692466899753 M1302.1746385765339 543.5698880539725 C1191.475083316683 541.6714379611216, 1079.763563854326 543.1027343039389, 998.6296701466147 544.4314010906198 M1303.371068393999 543.5445327910646 C1183.4162145733565 543.6468611228911, 1064.1774785836758 544.3883949404528, 997.9775084674446 542.2914754073397 M999.527505621314 545.223846450448 C997.6707724777758 523.6053480632603, 996.1787670342029 501.4216305598616, 998.6160400718451 470.67030803263185 M998.1548297479749 543.9867644950748 C996.0453268528283 514.6569860167801, 996.7718585968316 488.4004176825285, 996.0888683393598 468.7636092349887" stroke="#2E6BA6" stroke-width="3.4" fill="none" stroke-linecap="round" stroke-linejoin="round"/><path d="M1002.9298448012195 477.2127332322866 C1062.3877376220055 476.10288952184357, 1120.5914201710675 475.89936230519527, 1295.6627425347647 475.66451149195706 M1004.6347267848536 476.6496620621725 C1108.5123654343508 477.2020513068539, 1212.7854632403437 477.6173076183113, 1295.2459826556083 476.0308512207529 M1294.8485543839636 475.168668294698 C1294.1308457448336 498.37126220725474, 1296.344995625243 518.0641156718135, 1296.3343878142537 536.2341818340122 M1295.8785384181888 475.12798438631 C1296.1861130481961 493.4320265032351, 1295.4381268149616 513.8668360609561, 1294.7134737614545 535.491939156875 M1294.3050773940065 534.6033454694011 C1184.206190593146 536.2302387149549, 1074.2359908717763 537.2202616257646, 1005.5290940864649 535.3221694083202 M1296.4402079457373 535.5364381460712 C1187.9481215656078 535.4294316625679, 1082.0140708180227 534.1579220411138, 1004.9478225897234 536.2029159584794 M1003.2627806775272 535.4860849149525 C1003.9095057780296 515.8957767356187, 1005.1385802800208 489.6865972489119, 1003.9262004725636 473.82301111295817 M1004.2163780454547 536.9846321400255 C1003.6791681577265 515.5190588131547, 1005.0129652191698 494.0134277317673, 1004.8177570227534 475.7492453273386" stroke="#2E6BA6" stroke-width="1.6" fill="none" stroke-linecap="round" stroke-linejoin="round"/><text x="1150" y="518.24" font-family="'Libre Baskerville', Georgia, serif" font-size="34" fill="#2E6BA6" font-weight="700" text-anchor="middle" font-style="normal" letter-spacing="4">SCOPE IT</text></g></g><path d="M115.38176015375102 617.5803411823722 C120.46008075137848 617.5449344969236, 127.11392843179433 619.4782519856385, 130.90996624002162 623.5209146265818 C134.7060040482489 627.563577267525, 138.16264782301107 635.4966359216329, 138.1579870031147 641.8363170280321 C138.15332618321833 648.1759981344313, 134.25567635912324 656.7605720436936, 130.8820013206433 661.5590012649772 C127.50832628216335 666.3574304862607, 122.92118673591187 669.4666740105465, 117.91593677223507 670.6268923557336 C112.91068680855827 671.7871107009207, 105.69658253522269 671.1547954502674, 100.85050153858244 668.5203113360994 C96.00442054194218 665.8858272219314, 91.04816328437339 660.0046954885121, 88.83945079239358 654.8199876707256 C86.63073830041377 649.6352798529391, 86.08073081216811 642.9897018510642, 87.59822658670359 637.4120644293806 C89.11572236123907 631.8344270076971, 92.12283052141511 624.4142539127972, 97.94442543960646 621.3541631406241 C103.76602035779781 618.294072368451, 117.37489446829912 618.3785389731594, 122.52779609585171 619.0515197963416 C127.68069772340431 619.7245006195238, 128.8324908725775 625.0885510929734, 128.86183520492202 625.3920480797175 M108.68666850420387 617.9180919153691 C113.31779172953334 616.7910305142025, 121.16006848580642 617.6936714661015, 125.67714692888737 620.724793595654 C130.19422537196832 623.7559157252065, 134.2982719453231 630.2289485993758, 135.78913916268954 636.1048246926838 C137.28000638005597 641.9807007859918, 136.75635351585956 650.1055226079859, 134.62235023308594 655.9800501555018 C132.48834695031232 661.8545777030176, 127.6140601515748 669.0617549769211, 122.98511946604778 671.3519899777793 C118.35617878052075 673.6422249786376, 112.21241660246024 671.5076491353108, 106.84870611992376 669.7214601606511 C101.48499563738729 667.9352711859914, 94.06199438748135 665.6170669219928, 90.80285657082894 660.6348561298213 C87.54371875417652 655.6526453376498, 86.92726377536324 646.2577291449262, 87.29387922000927 639.828195407622 C87.6604946646553 633.3986616703179, 89.3226973315768 625.7331848586009, 93.00254923870509 622.0576537059961 C96.68240114583337 618.3821225533914, 106.29519453509414 618.4767092178981, 109.37299066277893 617.775008491993 C112.45078679046372 617.073307766088, 110.96141978138989 617.3818505432558, 111.46932600481387 617.8474493505657" stroke="#1D1D1B" stroke-width="2.4" fill="none" stroke-linecap="round" stroke-linejoin="round"/><text x="112" y="655" font-family="Kalam, 'Bradley Hand', cursive" font-size="30" fill="#1D1D1B" font-weight="700" text-anchor="middle" font-style="normal" letter-spacing="0">4</text><text x="164" y="638" font-family="'Libre Baskerville', Georgia, serif" font-size="25" fill="#1D1D1B" font-weight="700" text-anchor="start" font-style="italic" letter-spacing="0">Otherwise, it’s a convention</text><text x="164" y="672" font-family="'Libre Baskerville', Georgia, serif" font-size="25" fill="#1D1D1B" font-weight="700" text-anchor="start" font-style="italic" letter-spacing="0">the model can’t infer.</text><text x="164" y="708" font-family="'Libre Baskerville', Georgia, serif" font-size="17" fill="#6F6A60" font-weight="400" text-anchor="start" font-style="italic" letter-spacing="0">“money is integer cents”  ·  “pnpm, not npm”</text><path d="M745.1723879772258 650.2000486620534 C756.6478466289473 648.6466259094942, 789.067321431779 641.5955000704, 811.5169659806918 641.372853975581 C833.9666105296046 641.1502078807621, 868.2558982743055 647.620932338324, 879.8702552707027 648.8641720931399 M744.1562979258589 649.1345791371174 C755.5297056718003 647.6940168116319, 787.7360413076294 642.6629272452659, 810.2007277947716 642.7639814219065 C832.6654142819139 642.865035598547, 867.6420229012939 648.6260683570612, 878.9444168487124 649.7409041969605" stroke="#6F6A60" stroke-width="2.4" fill="none" stroke-linecap="round" stroke-linejoin="round"/><path d="M879.4932391375303 648.9464077264071 C877.7411570328492 650.6286666248357, 874.401933064331 651.3229254683091, 866.0109223338598 655.4594935714366 M879.7232688561082 650.3109531983733 C877.3698963305285 651.1265336563271, 873.9236523573655 652.9417559216297, 866.7158734219903 655.7534687175514" stroke="#6F6A60" stroke-width="2.4" fill="none" stroke-linecap="round" stroke-linejoin="round"/><path d="M878.8075972061604 650.7247385699302 C876.6146128730851 646.9707580341696, 875.893349430893 645.2499698494163, 868.5417202421422 641.5357799042823 M879.9340695181861 649.8697123637423 C877.2133544576253 647.3780841777781, 873.7006104730638 645.2672926576283, 867.574603552274 640.246043272956" stroke="#6F6A60" stroke-width="2.4" fill="none" stroke-linecap="round" stroke-linejoin="round"/><g transform="rotate(4 1150 648)"><path d="M1013.5342168912291 612.383556522429 L1288.8568941697479 614.9384678974748 L1288.983879004419 682.6234223023057 L1013.0179545983672 685.8864177837968" stroke="none" stroke-width="0" fill="#F2D64B" stroke-linecap="round" stroke-linejoin="round" opacity="0.8"/><g filter="url(#stamp)"><path d="M1012.5459700682381 610.195170455033 C1069.4753576407227 612.2345046116891, 1122.8861579022287 610.756779752179, 1286.3483376007166 612.8435963838446 M1013.3519755959215 611.2905685871802 C1089.9974166391378 609.6355213571497, 1168.3132782545838 610.6086084959077, 1287.1068390034943 611.5133453532362 M1287.7128249414266 611.9727475993335 C1289.6284110665993 630.7484059015289, 1287.2216193557458 651.8889926400035, 1288.1463316448032 683.7748262993991 M1287.02181792818 611.5732111815363 C1286.7953868622258 634.5184925125911, 1286.2168271893934 659.2221116274595, 1286.642987054214 684.6280939582736 M1287.805040019905 686.0819146877074 C1209.5794595521343 684.0095543684389, 1135.0725587076151 685.7255452068638, 1013.2663755764047 685.7663309356986 M1286.3185273233637 685.5779457026971 C1226.6622447405095 685.8443025359829, 1164.2329843168015 684.8696714072275, 1013.2354274396414 685.4444824225255 M1011.474431014806 687.2595157019794 C1011.79004655122 664.1997224276885, 1014.9456007265969 641.399144699052, 1011.9871628768742 609.7392295949161 M1011.9856678303331 685.9718380097299 C1014.1447397325262 661.1329750379548, 1011.9221286986098 636.7744469203054, 1011.791089123115 610.6630618814379" stroke="#1D1D1B" stroke-width="3.4" fill="none" stroke-linecap="round" stroke-linejoin="round"/><path d="M1018.4422645423374 616.1771677792459 C1071.4948023739269 615.4227608353715, 1125.657970555475 614.9620637158108, 1280.4798606679647 618.357031893634 M1020.7055605312469 617.5939397557296 C1099.9255769705476 619.7794849771914, 1179.483928394234 618.317110339697, 1280.5065252537956 618.2916940313988 M1280.156870034337 619.2734274834395 C1280.3945677271486 634.056399191916, 1278.8176190844179 653.7834108173847, 1280.414988949895 678.1316003769637 M1279.1790311798454 618.8140823140741 C1279.8857446455954 641.3332560628653, 1280.53542273283 664.3486959859729, 1281.331239269674 676.8507864251733 M1279.9147211131494 676.991409251654 C1205.23353893908 678.7061603464359, 1127.9645107004228 676.1157921551471, 1020.1235365205933 676.4840149413579 M1279.346282140123 677.4983049829915 C1175.944946400876 675.9186216531846, 1073.5509685101629 676.5726216385191, 1020.1899649070562 677.5388253758973 M1020.0097060710191 677.5217541664839 C1018.0422438022493 656.5974642321468, 1019.1188779231906 634.6787376523018, 1022.0973232775926 617.6919326752425 M1020.4472161278128 678.9697056546808 C1019.2620808023214 661.2441420972348, 1020.046735085845 643.2856454953551, 1020.5199778065085 617.6486979737878" stroke="#1D1D1B" stroke-width="1.6" fill="none" stroke-linecap="round" stroke-linejoin="round"/><text x="1150" y="660.24" font-family="'Libre Baskerville', Georgia, serif" font-size="34" fill="#1D1D1B" font-weight="700" text-anchor="middle" font-style="normal" letter-spacing="4">KEEP IT</text></g></g><text x="110" y="800" font-family="Kalam, 'Bradley Hand', cursive" font-size="30" fill="#1D1D1B" font-weight="700" text-anchor="start" font-style="normal" letter-spacing="0" transform="rotate(-0.8 110 800)">what survives is short: the conventions nothing in the code would have told the agent.</text><path d="M480.30674528181555 817.701498517394 C511.5567970466092 813.0028273010813, 539.7137171006053 813.4035176024959, 638.3970919042825 811.0233116239309 M476.872725777328 817.3459974005818 C529.6475841491149 820.8948354486861, 580.596163955763 819.7618628738002, 637.1827244326472 813.0910883143545" stroke="#C8352B" stroke-width="3.4" fill="none" stroke-linecap="round" stroke-linejoin="round"/><rect x="-50" y="-50" width="1700" height="1000" filter="url(#grain)"/></svg>